HIERARCHY
ROOT Hips
{
	OFFSET 0.0000 0.0000 0.0000
	CHANNELS 6 Xposition Yposition Zposition Zrotation Xrotation Yrotation
	JOINT Ab
	{
		OFFSET -0.0000 8.1305 -0.0000
		CHANNELS 3 Zrotation Xrotation Yrotation
		JOINT Chest
		{
			OFFSET -0.0000 26.2902 -0.0000
			CHANNELS 3 Zrotation Xrotation Yrotation
			JOINT Neck
			{
				OFFSET -0.0000 26.2902 0.0000
				CHANNELS 3 Zrotation Xrotation Yrotation
				JOINT Head
				{
					OFFSET -0.0000 10.8167 0.0000
					CHANNELS 3 Zrotation Xrotation Yrotation
					End Site
					{
						OFFSET -0.0000 16.7167 0.0000
					}
				}
			}
			JOINT LeftCollar
			{
				OFFSET -0.0000 26.2902 0.0000
				CHANNELS 3 Zrotation Xrotation Yrotation
				JOINT LeftShoulder
				{
					OFFSET 19.6667 -0.0000 0.0000
					CHANNELS 3 Zrotation Xrotation Yrotation
					JOINT LeftElbow
					{
						OFFSET 27.2190 0.0000 0.0000
						CHANNELS 3 Zrotation Xrotation Yrotation
						JOINT LeftWrist
						{
							OFFSET 30.7431 0.0000 0.0000
							CHANNELS 3 Zrotation Xrotation Yrotation
							End Site
							{
								OFFSET 0.0000 -14.7500 0.0000
							}
						}
					}
				}
			}
			JOINT RightCollar
			{
				OFFSET -0.0000 26.2902 0.0000
				CHANNELS 3 Zrotation Xrotation Yrotation
				JOINT RightShoulder
				{
					OFFSET -19.6667 0.0000 0.0000
					CHANNELS 3 Zrotation Xrotation Yrotation
					JOINT RightElbow
					{
						OFFSET -27.2190 0.0000 0.0000
						CHANNELS 3 Zrotation Xrotation Yrotation
						JOINT RightWrist
						{
							OFFSET -30.7431 0.0000 0.0000
							CHANNELS 3 Zrotation Xrotation Yrotation
							End Site
							{
								OFFSET -0.0000 -14.7500 0.0000
							}
						}
					}
				}
			}
		}
	}
	JOINT LeftHip
	{
		OFFSET 11.8000 0.0000 0.0000
		CHANNELS 3 Zrotation Xrotation Yrotation
		JOINT LeftKnee
		{
			OFFSET -0.0000 -39.7832 0.0000
			CHANNELS 3 Zrotation Xrotation Yrotation
			JOINT LeftAnkle
			{
				OFFSET -0.0000 -41.7317 0.0000
				CHANNELS 3 Zrotation Xrotation Yrotation
				End Site
				{
					OFFSET -0.0000 -4.9167 16.7167
				}
			}
		}
	}
	JOINT RightHip
	{
		OFFSET -11.8000 0.0000 0.0000
		CHANNELS 3 Zrotation Xrotation Yrotation
		JOINT RightKnee
		{
			OFFSET -0.0000 -39.7832 0.0000
			CHANNELS 3 Zrotation Xrotation Yrotation
			JOINT RightAnkle
			{
				OFFSET -0.0000 -41.7317 0.0000
				CHANNELS 3 Zrotation Xrotation Yrotation
				End Site
				{
					OFFSET -0.0000 -4.9167 16.7167
				}
			}
		}
	}
}
MOTION
Frames: 10
Frame Time: 0.010000
-18.5311 96.8978 177.8549 358.7082 357.9222 177.4994 358.2753 348.4197 0.3785 2.6842 9.8818 0.3205 357.4467 354.1198 2.5490 359.9491 3.8484 2.6825 339.2091 357.3332 14.5143 319.9673 59.4062 338.7542 8.6120 357.4604 327.1073 87.0905 355.8045 346.0037 28.3749 355.9120 343.9750 45.0457 44.9654 3.0198 340.6742 354.4740 31.5612 270.1133 355.6342 9.1900 356.6106 3.0877 0.0818 357.7243 8.9227 1.3164 354.8594 349.4937 19.5019 359.4570 6.7702 9.4887 6.2186 5.5332 6.5845 350.0990 343.4800 317.1456 
-18.5492 96.8967 177.8545 358.7097 357.9097 177.4708 358.2694 348.4231 0.3815 2.7111 9.8905 0.3194 357.4518 354.0819 2.5727 359.9498 3.8960 2.7065 339.1991 357.3105 14.5284 320.0040 59.4303 338.7230 8.6558 357.4338 327.1018 87.0457 355.8027 346.0169 28.3607 355.9338 343.9733 45.0563 44.9355 3.0164 340.7063 354.4824 31.5745 270.1354 355.6156 9.2260 356.6067 3.0619 0.0502 357.6999 8.9563 1.3293 354.4181 349.3642 19.5252 359.4369 6.7434 9.5129 6.2305 5.5517 6.5991 350.1135 343.4533 317.1386 
-18.5687 96.8970 177.8468 358.7114 357.9035 177.4423 358.2663 348.4192 0.3812 2.7305 9.9093 0.3170 357.4697 354.0544 2.5980 359.9420 3.9424 2.7325 339.2044 357.3298 14.5095 319.9394 59.4083 338.7947 8.6185 357.4502 327.0819 87.0222 355.7952 345.9525 28.3471 355.9264 343.9662 45.0576 44.9304 3.0281 340.6813 354.4827 31.5869 270.0959 355.6362 9.1003 356.5935 3.0459 0.0229 357.6912 8.9897 1.3519 354.3207 349.2996 19.5453 359.4178 6.7363 9.5490 6.2376 5.5572 6.5979 350.1208 343.4344 317.1362 
-18.5865 96.8964 177.8433 358.7177 357.8936 177.4069 358.2721 348.4179 0.3855 2.7406 9.9287 0.3206 357.4278 354.0835 2.6074 0.0182 3.9037 2.7405 339.2112 357.3090 14.5223 319.9804 59.4542 338.7428 8.6755 357.4131 327.0936 86.9298 355.7971 345.9552 28.3397 355.9112 343.9628 45.0586 44.9367 3.0180 340.6757 354.4961 31.6058 270.1070 355.6685 9.0247 356.5825 3.0178 0.0113 357.6863 9.0404 1.3657 354.3652 349.2599 19.5770 359.4083 6.7118 9.5763 6.2390 5.5835 6.5813 350.1244 343.4115 317.1545 
-18.6053 96.8940 177.8379 358.7263 357.8882 177.3774 358.2794 348.4195 0.3914 2.7508 9.9494 0.3243 357.3254 354.1579 2.6082 0.1834 3.7969 2.7391 339.2243 357.3171 14.5272 319.9946 59.4700 338.7119 8.6533 357.4431 327.0974 86.8792 355.7870 345.9376 28.3314 355.9241 343.9585 45.0718 44.9302 3.0055 340.6936 354.4905 31.6220 270.1129 355.6467 8.9938 356.5826 3.0022 359.9556 357.6582 9.0748 1.3977 354.4175 349.2204 19.6136 359.3959 6.7012 9.6068 6.2466 5.5968 6.5924 350.1504 343.3612 317.1438 
-18.6273 96.8942 177.8297 358.7227 357.8845 177.3403 358.2790 348.4215 0.3977 2.7603 9.9664 0.3276 357.3485 354.1248 2.6373 0.1734 3.8598 2.7684 339.2272 357.3261 14.5502 320.0707 59.5055 338.6101 8.6499 357.4360 327.1336 86.7990 355.7677 345.8900 28.3188 355.9247 343.9541 45.0824 44.9558 3.0039 340.6697 354.4808 31.6163 270.2076 355.5854 8.8496 356.5609 2.9875 359.8975 357.6422 9.1109 1.4630 354.4456 349.1714 19.6305 359.3684 6.6887 9.6146 6.2526 5.6172 6.6064 350.1960 343.2798 317.1412 
-18.6500 96.8938 177.8238 358.7242 357.8723 177.3107 358.2996 348.4164 0.3950 2.7444 9.9948 0.3239 357.3883 354.0612 2.6573 0.1338 3.9577 2.7891 339.2420 357.3263 14.5658 320.1194 59.5247 338.5439 8.6706 357.4291 327.1399 86.6875 355.7608 345.8448 28.3284 355.9278 343.9424 45.0516 44.9610 3.0318 340.6992 354.4871 31.6046 270.2441 355.5619 8.9230 356.5451 2.9574 359.8282 357.6235 9.1566 1.5211 354.5260 349.1351 19.6619 359.3431 6.6629 9.6617 6.2714 5.6454 6.6027 350.2097 343.2273 317.1253 
-18.6722 96.8920 177.8189 358.7264 357.8623 177.2745 358.3167 348.4223 0.3944 2.7358 10.0095 0.3244 357.4030 354.0356 2.6895 0.1353 4.0040 2.8210 339.2569 357.3271 14.5826 320.1103 59.5122 338.5258 8.6603 357.4346 327.1286 86.7714 355.7926 345.8986 28.3248 355.9213 343.9481 45.0475 44.9658 3.0324 340.7100 354.4890 31.6043 270.1841 355.5971 9.0155 356.5303 2.9586 359.5784 357.5756 9.1357 1.7803 354.5824 349.1183 19.6745 359.3238 6.6307 9.6961 6.2792 5.6901 6.6016 350.2270 343.1744 317.1437 
-18.6973 96.8903 177.8136 358.7242 357.8463 177.2378 358.3271 348.4208 0.3970 2.7331 10.0277 0.3246 357.4494 353.9880 2.7258 0.0875 4.0853 2.8576 339.2721 357.3108 14.6027 320.0961 59.5149 338.5093 8.6795 357.4318 327.1314 86.7373 355.8022 345.8956 28.3156 355.9322 343.9608 45.0628 44.9420 3.0138 340.7280 354.4954 31.6192 270.1525 355.5974 8.9998 356.5116 2.9644 359.2254 357.5048 9.0937 2.1140 354.6619 349.1034 19.7150 359.2929 6.5908 9.7311 6.2961 5.7371 6.6023 350.2575 343.0871 317.1505 
-18.7209 96.8885 177.8088 358.7245 357.8280 177.2002 358.3343 348.4175 0.3972 2.7354 10.0480 0.3235 357.4867 353.9535 2.7608 0.0563 4.1457 2.8923 339.2795 357.3110 14.6137 320.1088 59.5072 338.4951 8.6395 357.4494 327.1205 86.7353 355.7878 345.8793 28.3094 355.9416 343.9702 45.0601 44.9266 3.0120 340.7413 354.5060 31.6394 270.1037 355.5398 8.7891 356.4943 2.9242 359.1406 357.4838 9.1486 2.1654 354.6617 349.0164 19.7549 359.2655 6.5460 9.7745 6.3145 5.7873 6.6067 350.3042 342.9695 317.1302 
